<?xml version="1.0" encoding="UTF-8" standalone="no"?>
<!DOCTYPE svg PUBLIC "-//W3C//DTD SVG 1.1//EN" "http://www.w3.org/Graphics/SVG/1.1/DTD/svg11.dtd">
<!-- Created with Vectornator (http://vectornator.io/) -->
<svg height="100%" stroke-miterlimit="10" style="fill-rule:nonzero;clip-rule:evenodd;stroke-linecap:round;stroke-linejoin:round;" version="1.1" viewBox="0 0 581.4 581.4" width="100%" xml:space="preserve" xmlns="http://www.w3.org/2000/svg" xmlns:vectornator="http://vectornator.io" xmlns:xlink="http://www.w3.org/1999/xlink">
<defs/>
<g id="Untitled" vectornator:layerName="Untitled">
<path d="M523.54 249.16C522.56 235.143 520.318 221.244 516.84 207.63C509.841 180.457 497.766 154.854 481.25 132.17C473.015 120.962 463.733 110.562 453.53 101.11C443.366 91.7337 432.348 83.3272 420.62 76C408.974 68.7646 396.721 62.5546 384 57.44C371.378 52.4069 358.382 48.3679 345.13 45.36C318.881 39.5715 291.98 37.2883 265.13 38.57C262.921 38.57 261.13 40.3609 261.13 42.57C261.13 44.7792 262.921 46.57 265.13 46.57C292.73 47.82 318.44 52.02 341.58 59.06C353.813 62.7204 365.742 67.3277 377.26 72.84C388.676 78.3293 399.608 84.7722 409.94 92.1C420.151 99.4007 429.686 107.604 438.43 116.61C455.719 134.54 469.464 155.575 478.94 178.61C483.592 190.051 487.174 201.898 489.64 214C492.143 226.052 493.555 238.305 493.86 250.61C494.148 262.921 493.395 275.235 491.61 287.42C488.264 311.53 480.411 334.795 468.46 356C462.539 366.413 455.584 376.202 447.7 385.22C439.866 394.167 431.1 402.253 421.55 409.34C402.336 423.476 380.466 433.588 357.25 439.07C345.559 441.901 333.644 443.714 321.64 444.49C315.19 444.92 309.25 445.1 303.38 445.02C302.38 445.02 301.49 445.02 300.59 444.97L299.12 444.97L297.78 444.9C296.83 444.9 295.88 444.81 294.86 444.73C291.93 444.53 288.95 444.16 286.47 443.83C264.031 440.693 242.867 431.516 225.24 417.28C207.766 403.274 194.47 384.741 186.8 363.7C183.128 353.431 181.058 342.658 180.66 331.76C180.53 328.76 180.6 325.84 180.66 323.57C180.72 321.3 180.92 318.66 181.26 315.37C181.85 309.968 182.853 304.619 184.26 299.37C186.972 289.083 191.364 279.315 197.26 270.46C203.156 261.695 210.509 254.004 219 247.72C227.614 241.324 237.181 236.323 247.35 232.9C257.809 229.385 268.7 227.319 279.72 226.76C282.11 226.61 284.84 226.54 288.07 226.54C290.189 226.552 292.305 226.72 294.4 227.04C297.895 227.516 301.264 228.667 304.32 230.43C306.836 231.917 308.97 233.972 310.55 236.43C312.142 238.963 313.137 241.826 313.46 244.8C313.819 247.831 313.505 250.904 312.54 253.8C312.083 255.157 311.476 256.458 310.73 257.68C309.986 258.858 309.107 259.946 308.11 260.92C305.991 262.952 303.421 264.453 300.61 265.3C298.936 265.841 297.215 266.223 295.47 266.44L294.75 266.52C294.51 266.52 294.27 266.58 294.04 266.59L292.47 266.7L287.94 266.8C283.47 266.915 279.015 267.356 274.61 268.12C269.974 268.939 265.419 270.167 261 271.79C251.439 275.249 242.774 280.805 235.64 288.05C228.282 295.567 222.883 304.777 219.92 314.87C214.022 334.955 217.919 356.645 230.44 373.42C236.49 381.519 244.255 388.182 253.18 392.93C261.486 397.348 270.514 400.243 279.84 401.48C284.147 402.091 288.49 402.406 292.84 402.42L295.83 402.42C296.83 402.42 297.76 402.42 298.67 402.35C300.54 402.3 302.46 402.21 304.36 402.09C319.702 401.173 334.845 398.145 349.36 393.09C364.115 387.934 377.962 380.479 390.39 371C415.727 351.757 433.753 324.458 441.5 293.6C445.259 278.637 446.775 263.199 446 247.79C445.373 232.497 442.582 217.37 437.71 202.86C432.808 188.257 425.729 174.478 416.71 161.99C407.717 149.558 396.934 138.525 384.71 129.25C360.537 110.972 331.845 99.616 301.71 96.4C294.326 95.5844 286.899 95.2137 279.47 95.29C272.3 95.38 265.07 95.78 257.96 96.49C243.648 97.9129 229.494 100.624 215.67 104.59C187.919 112.529 161.948 125.714 139.16 143.43C116.398 161.179 97.5136 183.403 83.67 208.73C70.1226 233.894 61.6137 261.458 58.62 289.88C57.1624 303.872 56.9015 317.963 57.84 332C58.809 346.018 61.038 359.921 64.5 373.54C71.4966 400.728 83.6019 426.336 100.17 449C108.435 460.198 117.755 470.579 128 480C138.144 489.342 149.142 497.712 160.85 505C184.084 519.422 209.57 529.849 236.25 535.85C257.908 540.742 280.047 543.18 302.25 543.12C306.917 543.12 311.607 543.017 316.32 542.81C318.529 542.81 320.32 541.019 320.32 538.81C320.32 536.601 318.529 534.81 316.32 534.81C288.89 533.58 263.18 529.33 239.93 522.19C233.64 520.25 227.53 518.14 221.79 515.92C215.85 513.6 209.95 511.02 204.25 508.26C192.835 502.776 181.905 496.333 171.58 489C151.107 474.507 133.53 456.306 119.76 435.34C106.132 414.632 96.5965 391.505 91.67 367.21C89.1898 355.155 87.7909 342.903 87.49 330.6C87.2114 318.301 87.9741 306 89.77 293.83C93.1828 269.788 101.283 246.651 113.61 225.73C125.908 205.106 142.232 187.17 161.61 172.99C181 158.874 202.9 148.577 226.14 142.65C237.734 139.65 249.576 137.705 261.52 136.84C267.45 136.4 273.52 136.22 279.43 136.31C285.192 136.402 290.942 136.846 296.65 137.64C319.77 140.75 341.08 149.64 358.29 163.39C375.658 177.15 388.538 195.766 395.29 216.87C398.656 227.425 400.505 238.405 400.78 249.48C401.176 260.442 399.939 271.402 397.11 282C394.359 292.264 389.929 302.002 384 310.82C378.075 319.592 370.707 327.297 362.21 333.61C353.576 340.012 343.998 345.032 333.82 348.49C323.385 352.027 312.513 354.11 301.51 354.68C300.11 354.76 298.71 354.81 297.28 354.84L293.19 354.84C290.981 354.825 288.776 354.658 286.59 354.34C282.815 353.889 279.152 352.757 275.78 351C273.027 349.549 270.635 347.498 268.78 345C267.049 342.65 265.882 339.933 265.37 337.06C264.86 334.219 265.017 331.299 265.83 328.53C266.598 325.922 268 323.545 269.91 321.61C272.073 319.468 274.692 317.841 277.57 316.85C279.318 316.216 281.118 315.738 282.95 315.42C285.037 315.073 287.145 314.873 289.26 314.82L294.54 314.71L294.72 314.71L298.03 314.48C298.88 314.42 299.73 314.32 300.58 314.22L301.53 314.11C306.285 313.499 310.972 312.444 315.53 310.96C330.436 306.206 343.158 296.292 351.41 283C354.132 278.624 356.343 273.95 358 269.07C361.193 259.433 362.218 249.209 361 239.13C359.793 228.964 356.292 219.205 350.76 210.59C345.18 201.918 337.645 194.674 328.76 189.44C320.408 184.555 311.182 181.348 301.6 180C297.177 179.342 292.712 179.008 288.24 179C283.74 179 280.24 179.13 276.87 179.36C261.532 180.266 246.39 183.274 231.87 188.3C217.059 193.4 203.155 200.827 190.68 210.3C165.329 229.577 147.333 256.945 139.68 287.86C137.791 295.383 136.477 303.038 135.75 310.76C135.36 315.15 135.14 318.76 135.08 322.24C134.99 326.7 135.08 330.37 135.24 333.78C136.039 349.256 139.209 364.517 144.64 379.03C149.985 393.376 157.368 406.878 166.56 419.12C184.847 443.42 209.351 462.334 237.49 473.87C251.477 479.59 266.179 483.375 281.19 485.12C285.7 485.6 289.19 485.87 292.37 486C293.81 486.08 295.24 486.11 296.62 486.14L303.57 486.14C310.33 486.05 317.49 485.65 324.86 484.96C339.126 483.648 353.252 481.105 367.08 477.36C381.024 473.598 394.566 468.477 407.51 462.07C420.489 455.615 432.759 447.823 444.12 438.82C466.775 420.795 485.367 398.188 498.68 372.48C511.753 347.167 519.917 319.609 522.74 291.26C524.196 277.275 524.464 263.191 523.54 249.16Z" fill="#ffffff" fill-rule="nonzero" opacity="1" stroke="none"/>
</g>
</svg>
