<svg id="Layer_1" data-name="Layer 1" xmlns="http://www.w3.org/2000/svg" xmlns:xlink="http://www.w3.org/1999/xlink" viewBox="0 0 946 473"><defs><style>.cls-1{fill:none;}.cls-2{clip-path:url(#clip-path);}.cls-3{fill:#3c499f;opacity:0.6;}.cls-3,.cls-5,.cls-6,.cls-7{isolation:isolate;}.cls-4{opacity:0.7;}.cls-5,.cls-6{opacity:0.21;}.cls-5{fill:url(#linear-gradient);}.cls-6{fill:url(#linear-gradient-2);}.cls-7{opacity:0.91;fill:url(#linear-gradient-3);}</style><clipPath id="clip-path"><rect class="cls-1" width="946" height="473"/></clipPath><linearGradient id="linear-gradient" x1="967.84" y1="223.74" x2="163.17" y2="-108.98" gradientTransform="matrix(1, 0, 0, -1, 0, 474)" gradientUnits="userSpaceOnUse"><stop offset="0.01" stop-color="#3c499f" stop-opacity="0.82"/><stop offset="0.32" stop-color="#3c499f" stop-opacity="0"/><stop offset="0.52" stop-color="#3c499f" stop-opacity="0.27"/><stop offset="0.65" stop-color="#3c499f"/><stop offset="0.78" stop-color="#3c499f" stop-opacity="0.93"/><stop offset="1" stop-color="#3c499f" stop-opacity="0"/></linearGradient><linearGradient id="linear-gradient-2" x1="863.33" y1="159.4" x2="279.34" y2="-114.72" gradientTransform="matrix(1, 0, 0, -1, 0, 474)" gradientUnits="userSpaceOnUse"><stop offset="0" stop-color="#3c499f" stop-opacity="0"/><stop offset="0.43" stop-color="#3c499f"/><stop offset="0.64" stop-color="#3c499f" stop-opacity="0.12"/><stop offset="0.8" stop-color="#3c499f" stop-opacity="0.16"/><stop offset="1" stop-color="#3c499f" stop-opacity="0.9"/></linearGradient><linearGradient id="linear-gradient-3" x1="609.27" y1="80.71" x2="618.6" y2="231.13" gradientTransform="matrix(1, 0, 0, -1, 0, 474)" gradientUnits="userSpaceOnUse"><stop offset="0" stop-color="#101334"/><stop offset="1" stop-color="#101334" stop-opacity="0"/></linearGradient></defs><g class="cls-2"><circle class="cls-3" cx="640.32" cy="105.06" r="2.62"/><circle class="cls-3" cx="671.55" cy="67.62" r="1.98"/><g class="cls-4"><path class="cls-5" d="M21.46,378.43-53.71,457.7l1141.09,22.41L1056.57,26.05,914.37,44.93A171.63,171.63,0,0,0,834,77.73l-27.3,20.45a171.6,171.6,0,0,1-107.09,34.23l-10.84-.26a171.63,171.63,0,0,0-118.4,43.48L562.16,183a171.7,171.7,0,0,1-118.4,43.48l-40.13-1A143.9,143.9,0,0,0,291,275.56,143.87,143.87,0,0,1,178.4,325.64L150.17,325A171.65,171.65,0,0,0,21.46,378.43Z"/><path class="cls-6" d="M40.35,432.55l-73.22,81.07H1042.5l57.61-427.28L891,94l-76.88,49.15a171.66,171.66,0,0,1-92.46,27H701.52a171.63,171.63,0,0,0-117.3,46.34l-8.07,7.56a171.67,171.67,0,0,1-117.31,46.33H418.7a143.87,143.87,0,0,0-111.37,52.79A143.86,143.86,0,0,1,196,376H167.72A171.63,171.63,0,0,0,40.35,432.55Z"/><path class="cls-7" d="M212,474.28l-75.16,79.26L1060.45,576l10.18-419.52-78.05,47.27a171.64,171.64,0,0,1-93.08,24.77L879.33,228a171.67,171.67,0,0,0-118.39,43.48l-8.25,7.36a171.67,171.67,0,0,1-118.4,43.48l-40.13-1a143.86,143.86,0,0,0-112.62,50.07,143.86,143.86,0,0,1-112.62,50.07l-28.23-.68A171.64,171.64,0,0,0,212,474.28Z"/></g><circle class="cls-3" cx="450.48" cy="371.54" r="1.44"/><circle class="cls-3" cx="387.67" cy="369.91" r="2.62"/><circle class="cls-3" cx="428.77" cy="396.14" r="1.98"/><circle class="cls-3" cx="243.83" cy="251.15" r="1.44"/><circle class="cls-3" cx="250.99" cy="219.58" r="1.44"/><circle class="cls-3" cx="260.52" cy="188.86" r="3.07"/><circle class="cls-3" cx="256.03" cy="251.96" r="1.98"/></g></svg>